<?xml version="1.0" encoding="utf-8"?>
<!-- Generator: Adobe Illustrator 17.1.0, SVG Export Plug-In . SVG Version: 6.00 Build 0)  -->
<!DOCTYPE svg PUBLIC "-//W3C//DTD SVG 1.1//EN" "http://www.w3.org/Graphics/SVG/1.1/DTD/svg11.dtd">
<svg version="1.1" id="Layer_1" xmlns="http://www.w3.org/2000/svg" xmlns:xlink="http://www.w3.org/1999/xlink" x="0px" y="0px"
	 viewBox="0 0 45 45" enable-background="new 0 0 45 45" xml:space="preserve">
<path fill="#484C55" d="M45,22.5C45,35,35,45.1,22.5,45.1C10.1,45.1,0,35,0,22.5S10.1-0.1,22.5-0.1C35-0.1,45,10.1,45,22.5z"/>
<g>
	<path fill="#FFFFFF" d="M26.4,19.2c0.3-0.4,1-0.7,2-0.7c0.9,0,2,0.1,3.1,0.4l0.9-4.6c-1.8-0.6-3.7-0.8-5.6-0.8
		c-1.9,0-3.4,0.3-4.6,1c-1.2,0.7-2,1.4-2.5,2.5C19.2,18,19,19.6,19,21.6v1.8h-3.7v5.2H19V45c1.6,0.3,3.2,0.5,4.9,0.5
		c0.6,0,1.3,0,1.9-0.1V28.6h4.9v-5.2h-4.9v-1.7C25.8,20.5,25.9,19.7,26.4,19.2z"/>
</g>
</svg>
