<?xml version="1.0" encoding="utf-8"?>
<!-- Generator: Adobe Illustrator 17.1.0, SVG Export Plug-In . SVG Version: 6.00 Build 0)  -->
<!DOCTYPE svg PUBLIC "-//W3C//DTD SVG 1.1//EN" "http://www.w3.org/Graphics/SVG/1.1/DTD/svg11.dtd">
<svg version="1.1" id="Layer_1" xmlns="http://www.w3.org/2000/svg" xmlns:xlink="http://www.w3.org/1999/xlink" x="0px" y="0px"
	 viewBox="0 0 45 45" enable-background="new 0 0 45 45" xml:space="preserve">
<path fill="#484C55" d="M45.1,22.5C45.1,34.9,35,45,22.5,45C10.1,45,0,34.9,0,22.5S10.1-0.1,22.5-0.1C35-0.1,45.1,10,45.1,22.5z"/>
<g>
	<path fill-rule="evenodd" clip-rule="evenodd" fill="#FFFFFF" d="M32.4,9.1c-6.5,0-13.1,0-19.7,0c-2.3,0-3.5,1.2-3.5,3.6
		c0,3.2,0,6.5,0,9.8c0,3.2,0,6.6,0,9.8c0,2.3,1.2,3.5,3.4,3.5c6.6,0,13.2,0,19.8,0c2.3,0,3.5-1.2,3.5-3.5c0-6.6,0-13.1,0-19.7
		C35.9,10.3,34.6,9.1,32.4,9.1z M30.2,12.1c2.6,0,2.6,0,2.6,2.6c0,2.6,0,2.6-2.6,2.6c-2.6,0-2.6,0-2.6-2.6
		C27.6,12.1,27.6,12.1,30.2,12.1z M22.5,17.3c2.8,0,5.2,2.4,5.1,5.2c0,2.8-2.4,5.2-5.2,5.2c-2.8-0.1-5.2-2.4-5.1-5.2
		C17.4,19.6,19.7,17.3,22.5,17.3z M32.8,31.2c0,1.2-0.3,1.6-1.6,1.6c-2.9,0-5.8,0-8.7,0c-2.9,0-5.8,0-8.7,0c-1.2,0-1.6-0.4-1.6-1.6
		c0-3.2,0-6.5,0-9.7c0-0.9,0.3-1.1,1.1-1.1c1.2,0.1,1.2,0,1.1,1.2c-0.5,4.1,2.4,8.1,6.5,8.9c4.2,0.8,8.4-1.7,9.5-5.7
		c0.3-1.3,0.4-2.6,0.2-3.8c-0.1-0.5,0-0.6,0.4-0.6c1.8-0.1,1.8-0.2,1.8,1.7C32.8,25.1,32.8,28.1,32.8,31.2z"/>
</g>
</svg>
