<?xml version="1.0" encoding="utf-8"?>
<!-- Generator: Adobe Illustrator 17.1.0, SVG Export Plug-In . SVG Version: 6.00 Build 0)  -->
<!DOCTYPE svg PUBLIC "-//W3C//DTD SVG 1.1//EN" "http://www.w3.org/Graphics/SVG/1.1/DTD/svg11.dtd">
<svg version="1.1" id="Layer_1" xmlns="http://www.w3.org/2000/svg" xmlns:xlink="http://www.w3.org/1999/xlink" x="0px" y="0px"
	 viewBox="0 0 45 45" enable-background="new 0 0 45 45" xml:space="preserve">
<path fill="#484C55" d="M45.2,22.5c0,12.4-10.1,22.5-22.5,22.5C10.2,45.1,0.1,35,0.1,22.5S10.2-0.1,22.7-0.1
	C35.1-0.1,45.2,10.1,45.2,22.5z"/>
<g>
	<path fill-rule="evenodd" clip-rule="evenodd" fill="#FFFFFF" d="M6.7,32.5c2.4,0.2,4.7-0.2,6.9-1.2c1-0.4,1.9-0.9,2.8-1.7
		c-1,0-2-0.3-2.9-0.7c-1.5-0.7-2.5-1.9-3.2-3.5c-0.1-0.4-0.1-0.4,0.2-0.3c1.1,0.1,1.8,0.1,2.4-0.2c-0.6-0.2-1.1-0.3-1.6-0.6
		c-2.2-1.2-3.4-3.1-3.6-5.6c0-0.3,0.1-0.3,0.3-0.2c0.8,0.4,1.6,0.6,2.6,0.7c-0.4-0.4-0.8-0.7-1.1-1c-1.8-2-2.3-5.1-1-7.5
		c0.2-0.3,0.2-0.3,0.4-0.1c3.1,3.6,6.9,5.7,11.5,6.4c0.5,0.1,1,0.1,1.5,0.2c0.3,0.1,0.4-0.1,0.3-0.4c-0.5-2.8,0.8-5.5,3.3-6.9
		c2.5-1.5,5.8-1,7.8,1c0.2,0.2,0.5,0.3,0.7,0.2c1.2-0.3,2.4-0.7,3.5-1.4c0.1,0,0.2-0.1,0.3-0.2c-0.5,1.6-1.4,2.7-2.8,3.6
		c1.3-0.1,2.4-0.5,3.6-0.9c0,0.2-0.1,0.3-0.2,0.4c-0.8,1.1-1.7,2-2.7,2.8c-0.2,0.2-0.2,0.3-0.2,0.5c0.1,4.8-1.5,9.2-4.6,12.9
		c-2.9,3.4-6.6,5.5-11,6.2c-4.7,0.7-9.1-0.1-13.2-2.6C6.7,32.6,6.7,32.5,6.7,32.5z"/>
</g>
</svg>
