<?xml version="1.0" encoding="utf-8"?>
<!-- Generator: Adobe Illustrator 17.1.0, SVG Export Plug-In . SVG Version: 6.00 Build 0)  -->
<!DOCTYPE svg PUBLIC "-//W3C//DTD SVG 1.1//EN" "http://www.w3.org/Graphics/SVG/1.1/DTD/svg11.dtd">
<svg version="1.1" id="Layer_1" xmlns="http://www.w3.org/2000/svg" xmlns:xlink="http://www.w3.org/1999/xlink" x="0px" y="0px"
	 viewBox="0 0 45 45" enable-background="new 0 0 45 45" xml:space="preserve">
<path fill="#484C55" d="M45,22.5C45,35,35,45.1,22.5,45.1C10.1,45.1,0,35,0,22.5S10.1-0.1,22.5-0.1C35-0.1,45,10.1,45,22.5z"/>
<g>
	<path fill-rule="evenodd" clip-rule="evenodd" fill="#FFFFFF" d="M37.2,18.4C35.6,11.8,29.9,7.3,23,7.2c-0.9,0-1.9,0.1-2.8,0.3
		c-9.7,1.9-14.7,12.6-10,21.3c0.2,0.2,0.2,0.5,0.1,0.7C9.7,31.7,9,34,8.4,36.2c-0.1,0.4-0.1,0.4,0.3,0.3c2.4-0.6,4.7-1.2,7.1-1.8
		c0.2-0.1,0.4-0.1,0.5,0c3,1.5,6.2,2,9.6,1.4C33.9,34.5,39.1,26.4,37.2,18.4z M25.1,33.7c-0.7,0.1-1.4,0.2-1.7,0.1
		c-2.6,0-4.7-0.6-6.6-1.7C16.5,32,16.3,32,16,32.1c-1.3,0.3-2.6,0.7-3.9,1c-0.3,0.1-0.3,0-0.2-0.2c0.3-1.2,0.7-2.4,1.1-3.7
		c0.1-0.3,0.1-0.6-0.2-0.9c-2.6-4.3-2.5-9.6,0.4-13.6c3.1-4.1,7.3-5.8,12.3-4.8c5,1,8.1,4.3,9.3,9.2C36.4,25.9,31.9,32.6,25.1,33.7z
		"/>
	<path fill-rule="evenodd" clip-rule="evenodd" fill="#FFFFFF" d="M26.8,28.7c-0.5,0-1,0-1.5-0.2c-3.3-1-5.9-3-7.9-5.8
		c-0.8-1-1.5-2.1-1.7-3.4c-0.3-1.5,0.2-2.9,1.3-3.9c0.4-0.4,1.5-0.5,1.9-0.3c0.1,0.1,0.2,0.2,0.3,0.4c0.4,1,0.9,2,1.3,3
		c0.1,0.2,0.1,0.4-0.1,0.6c-0.2,0.5-0.6,0.8-0.9,1.2c-0.3,0.2-0.3,0.5-0.1,0.8c1.2,2,2.8,3.4,5,4.3c0.3,0.1,0.6,0.1,0.8-0.2
		c0.4-0.4,0.7-0.9,1.1-1.4c0.2-0.3,0.5-0.3,0.8-0.2c0.7,0.3,1.4,0.7,2.1,1c0.2,0.1,0.3,0.2,0.5,0.2c0.7,0.4,0.7,0.4,0.6,1.2
		c-0.1,1.5-1.3,2.3-2.6,2.7C27.4,28.8,27.1,28.8,26.8,28.7z"/>
</g>
</svg>
