<?xml version="1.0" encoding="utf-8"?>
<!-- Generator: Adobe Illustrator 17.1.0, SVG Export Plug-In . SVG Version: 6.00 Build 0)  -->
<!DOCTYPE svg PUBLIC "-//W3C//DTD SVG 1.1//EN" "http://www.w3.org/Graphics/SVG/1.1/DTD/svg11.dtd">
<svg version="1.1" id="Layer_1" focusable="false" xmlns="http://www.w3.org/2000/svg" xmlns:xlink="http://www.w3.org/1999/xlink"
	 x="0px" y="0px" viewBox="0 0 45 45" enable-background="new 0 0 45 45" xml:space="preserve">
<path fill="#818181" d="M41.3,26L45,9.8c0.3-1.2-0.6-2.3-1.8-2.3H12.4L11.7,4c-0.2-0.9-0.9-1.5-1.8-1.5h-8C0.8,2.5,0,3.3,0,4.4v1.3
	c0,1,0.8,1.9,1.9,1.9h5.5l5.5,26.8c-1.3,0.8-2.2,2.2-2.2,3.8c0,2.4,2,4.4,4.4,4.4s4.4-2,4.4-4.4c0-1.2-0.5-2.3-1.3-3.1h16.4
	c-0.8,0.8-1.3,1.9-1.3,3.1c0,2.4,2,4.4,4.4,4.4s4.4-2,4.4-4.4c0-1.7-1-3.2-2.5-3.9l0.4-1.9c0.3-1.2-0.6-2.3-1.8-2.3H17l-0.5-2.5
	h22.9C40.3,27.5,41.1,26.9,41.3,26z"/>
</svg>
