<?xml version="1.0" encoding="utf-8"?>
<!-- Generator: Adobe Illustrator 17.1.0, SVG Export Plug-In . SVG Version: 6.00 Build 0)  -->
<!DOCTYPE svg PUBLIC "-//W3C//DTD SVG 1.1//EN" "http://www.w3.org/Graphics/SVG/1.1/DTD/svg11.dtd">
<svg version="1.1" id="Layer_1" focusable="false" xmlns="http://www.w3.org/2000/svg" xmlns:xlink="http://www.w3.org/1999/xlink"
	 x="0px" y="0px" viewBox="0 0 45 45" enable-background="new 0 0 45 45" xml:space="preserve">
<path fill="#818181" d="M44.7,21.4C40.5,13.1,32.1,7.5,22.5,7.5s-18,5.6-22.2,13.9c-0.4,0.7-0.4,1.6,0,2.3
	c4.2,8.3,12.6,13.9,22.2,13.9s18-5.6,22.2-13.9C45.1,22.9,45.1,22.1,44.7,21.4z M22.5,33.8c-6.2,0-11.3-5-11.3-11.3
	s5-11.3,11.3-11.3s11.3,5,11.3,11.3C33.8,28.7,28.7,33.7,22.5,33.8C22.5,33.8,22.5,33.8,22.5,33.8z M22.5,15c-0.7,0-1.3,0.1-2,0.3
	c1.2,1.7,0.9,4-0.8,5.2c-1.3,1-3.1,1-4.4,0c-1.1,4,1.3,8.1,5.3,9.2c4,1.1,8.1-1.3,9.2-5.3c1.1-4-1.3-8.1-5.3-9.2
	C23.8,15.1,23.2,15,22.5,15z"/>
</svg>
